<svg width="1440" height="758" xmlns="http://www.w3.org/2000/svg"><g><path d="M-70,-17L-116,496L-108,429Z" fill="#f5b897" stroke="#f5b897"/><path d="M-70,-17L-108,429L-44,78Z" fill="#feae81" stroke="#feae81"/><path d="M-70,-17L-44,78L84,61Z" fill="#fea16b" stroke="#fea16b"/><path d="M-70,-17L84,61L92,-95Z" fill="#fe9c62" stroke="#fe9c62"/><path d="M92,-95L84,61L188,102Z" fill="#fead74" stroke="#fead74"/><path d="M92,-95L188,102L263,-131Z" fill="#fea96b" stroke="#fea96b"/><path d="M263,-131L188,102L317,51Z" fill="#ffbb7f" stroke="#ffbb7f"/><path d="M263,-131L317,51L433,-113Z" fill="#ffb876" stroke="#ffb876"/><path d="M263,-131L433,-113L630,-120Z" fill="#ffba73" stroke="#ffba73"/><path d="M263,-131L630,-120L840,-121Z" fill="#f4b87a" stroke="#f4b87a"/><path d="M263,-131L840,-121L1263,-124Z" fill="#dcaa7f" stroke="#dcaa7f"/><path d="M433,-113L317,51L494,-21Z" fill="#ffc787" stroke="#ffc787"/><path d="M433,-113L494,-21L630,-120Z" fill="#fbc381" stroke="#fbc381"/><path d="M494,-21L317,51L468,99Z" fill="#ffd59a" stroke="#ffd59a"/><path d="M494,-21L468,99L549,184Z" fill="#fde1aa" stroke="#fde1aa"/><path d="M494,-21L549,184L731,121Z" fill="#f2ddaf" stroke="#f2ddaf"/><path d="M494,-21L731,121L630,-120Z" fill="#efca97" stroke="#efca97"/><path d="M630,-120L731,121L840,-121Z" fill="#e2bc93" stroke="#e2bc93"/><path d="M840,-121L731,121L837,98Z" fill="#dac4a6" stroke="#dac4a6"/><path d="M840,-121L837,98L960,-43Z" fill="#d2b59b" stroke="#d2b59b"/><path d="M840,-121L960,-43L1096,-79Z" fill="#c8a58f" stroke="#c8a58f"/><path d="M840,-121L1096,-79L1263,-124Z" fill="#bc9a8c" stroke="#bc9a8c"/><path d="M960,-43L837,98L962,104Z" fill="#cdbfaf" stroke="#cdbfaf"/><path d="M960,-43L962,104L1081,34Z" fill="#c4b7ab" stroke="#c4b7ab"/><path d="M960,-43L1081,34L1096,-79Z" fill="#bea99e" stroke="#bea99e"/><path d="M1096,-79L1081,34L1271,70Z" fill="#b3a9aa" stroke="#b3a9aa"/><path d="M1096,-79L1271,70L1263,-124Z" fill="#ac9ca0" stroke="#ac9ca0"/><path d="M1263,-124L1271,70L1417,-51Z" fill="#9f96a5" stroke="#9f96a5"/><path d="M1263,-124L1417,-51L1628,-73Z" fill="#92869d" stroke="#92869d"/><path d="M1417,-51L1271,70L1374,125Z" fill="#9ba2ba" stroke="#9ba2ba"/><path d="M1417,-51L1374,125L1580,101Z" fill="#8f9dbf" stroke="#8f9dbf"/><path d="M1417,-51L1580,101L1628,-73Z" fill="#868bb2" stroke="#868bb2"/><path d="M1628,-73L1580,101L1610,475Z" fill="#80a6dd" stroke="#80a6dd"/><path d="M1628,-73L1610,475L1611,884Z" fill="#63aafb" stroke="#63aafb"/><path d="M-44,78L-108,429L-42,265Z" fill="#fdbf98" stroke="#fdbf98"/><path d="M-44,78L-42,265L83,187Z" fill="#feb98c" stroke="#feb98c"/><path d="M-44,78L83,187L84,61Z" fill="#feb280" stroke="#feb280"/><path d="M84,61L83,187L188,102Z" fill="#febd8a" stroke="#febd8a"/><path d="M188,102L83,187L259,190Z" fill="#fecb9b" stroke="#fecb9b"/><path d="M188,102L259,190L317,51Z" fill="#ffcc98" stroke="#ffcc98"/><path d="M317,51L259,190L357,209Z" fill="#ffdaa7" stroke="#ffdaa7"/><path d="M317,51L357,209L468,99Z" fill="#ffdca7" stroke="#ffdca7"/><path d="M468,99L357,209L549,184Z" fill="#ffedba" stroke="#ffedba"/><path d="M731,121L549,184L710,185Z" fill="#eae4c2" stroke="#eae4c2"/><path d="M731,121L710,185L837,98Z" fill="#dfd8bd" stroke="#dfd8bd"/><path d="M837,98L710,185L870,271Z" fill="#dadecb" stroke="#dadecb"/><path d="M837,98L870,271L962,104Z" fill="#d0d3c7" stroke="#d0d3c7"/><path d="M962,104L870,271L980,284Z" fill="#cbdbd7" stroke="#cbdbd7"/><path d="M962,104L980,284L1144,189Z" fill="#c0d0d3" stroke="#c0d0d3"/><path d="M962,104L1144,189L1081,34Z" fill="#bdc0c0" stroke="#bdc0c0"/><path d="M1081,34L1144,189L1271,70Z" fill="#b1b7c0" stroke="#b1b7c0"/><path d="M1271,70L1144,189L1298,189Z" fill="#a8bbcf" stroke="#a8bbcf"/><path d="M1271,70L1298,189L1374,125Z" fill="#a0b2cc" stroke="#a0b2cc"/><path d="M1374,125L1298,189L1468,244Z" fill="#98b8dc" stroke="#98b8dc"/><path d="M1374,125L1468,244L1541,197Z" fill="#8fb3df" stroke="#8fb3df"/><path d="M1374,125L1541,197L1580,101Z" fill="#8ba8d4" stroke="#8ba8d4"/><path d="M1580,101L1541,197L1554,371Z" fill="#84b2ea" stroke="#84b2ea"/><path d="M1580,101L1554,371L1610,475Z" fill="#77b2f5" stroke="#77b2f5"/><path d="M-42,265L-108,429L21,341Z" fill="#efbc9f" stroke="#efbc9f"/><path d="M-42,265L21,341L83,187Z" fill="#fcc8a1" stroke="#fcc8a1"/><path d="M83,187L21,341L192,409Z" fill="#f5cfac" stroke="#f5cfac"/><path d="M83,187L192,409L259,190Z" fill="#fddbb2" stroke="#fddbb2"/><path d="M259,190L192,409L361,326Z" fill="#f6e3bf" stroke="#f6e3bf"/><path d="M259,190L361,326L357,209Z" fill="#ffebbf" stroke="#ffebbf"/><path d="M357,209L361,326L489,365Z" fill="#f8f4cc" stroke="#f8f4cc"/><path d="M357,209L489,365L549,184Z" fill="#fffdd0" stroke="#fffdd0"/><path d="M549,184L489,365L693,423Z" fill="#e9f5d9" stroke="#e9f5d9"/><path d="M549,184L693,423L710,185Z" fill="#eaf3d7" stroke="#eaf3d7"/><path d="M710,185L693,423L870,271Z" fill="#d9ebdc" stroke="#d9ebdc"/><path d="M870,271L693,423L853,416Z" fill="#c7e3e2" stroke="#c7e3e2"/><path d="M870,271L853,416L924,419Z" fill="#bedee3" stroke="#bedee3"/><path d="M870,271L924,419L980,284Z" fill="#c1dee3" stroke="#c1dee3"/><path d="M980,284L924,419L1142,358Z" fill="#b1d6e7" stroke="#b1d6e7"/><path d="M980,284L1142,358L1144,189Z" fill="#b6d5e5" stroke="#b6d5e5"/><path d="M1144,189L1142,358L1298,189Z" fill="#adcee5" stroke="#adcee5"/><path d="M1298,189L1142,358L1330,374Z" fill="#9dc8eb" stroke="#9dc8eb"/><path d="M1298,189L1330,374L1391,345Z" fill="#95c3ed" stroke="#95c3ed"/><path d="M1298,189L1391,345L1468,244Z" fill="#96c2ed" stroke="#96c2ed"/><path d="M1468,244L1391,345L1554,371Z" fill="#83baf2" stroke="#83baf2"/><path d="M1468,244L1554,371L1541,197Z" fill="#85b9f1" stroke="#85b9f1"/><path d="M-108,429L-116,496L126,505Z" fill="#d9b6a7" stroke="#d9b6a7"/><path d="M-108,429L126,505L21,341Z" fill="#e2bfa9" stroke="#e2bfa9"/><path d="M21,341L126,505L192,409Z" fill="#e3cbb4" stroke="#e3cbb4"/><path d="M192,409L126,505L273,468Z" fill="#dcd3bf" stroke="#dcd3bf"/><path d="M192,409L273,468L361,326Z" fill="#e7dfc4" stroke="#e7dfc4"/><path d="M361,326L273,468L357,538Z" fill="#e0e3cc" stroke="#e0e3cc"/><path d="M361,326L357,538L489,365Z" fill="#e6eed2" stroke="#e6eed2"/><path d="M489,365L357,538L555,528Z" fill="#dbf2dc" stroke="#dbf2dc"/><path d="M489,365L555,528L693,423Z" fill="#d6efdf" stroke="#d6efdf"/><path d="M693,423L555,528L732,481Z" fill="#c6e7e3" stroke="#c6e7e3"/><path d="M693,423L732,481L853,416Z" fill="#c1e3e4" stroke="#c1e3e4"/><path d="M853,416L732,481L878,573Z" fill="#b2dce8" stroke="#b2dce8"/><path d="M853,416L878,573L924,419Z" fill="#aed9e9" stroke="#aed9e9"/><path d="M924,419L878,573L958,553Z" fill="#a2d4ec" stroke="#a2d4ec"/><path d="M924,419L958,553L1142,358Z" fill="#a4d2eb" stroke="#a4d2eb"/><path d="M1142,358L958,553L1182,565Z" fill="#92c9f1" stroke="#92c9f1"/><path d="M1142,358L1182,565L1247,472Z" fill="#8bc4f2" stroke="#8bc4f2"/><path d="M1142,358L1247,472L1330,374Z" fill="#90c5f0" stroke="#90c5f0"/><path d="M1330,374L1247,472L1474,501Z" fill="#7cbbf6" stroke="#7cbbf6"/><path d="M1330,374L1474,501L1391,345Z" fill="#7dbaf5" stroke="#7dbaf5"/><path d="M1391,345L1474,501L1554,371Z" fill="#74b5f7" stroke="#74b5f7"/><path d="M1554,371L1474,501L1610,475Z" fill="#65aefb" stroke="#65aefb"/><path d="M-116,496L-52,1000L-60,784Z" fill="#aba2a4" stroke="#aba2a4"/><path d="M-116,496L-60,784L-22,733Z" fill="#baa8a5" stroke="#baa8a5"/><path d="M-116,496L-22,733L46,639Z" fill="#c2afa9" stroke="#c2afa9"/><path d="M-116,496L46,639L126,505Z" fill="#ceb9ae" stroke="#ceb9ae"/><path d="M126,505L46,639L199,727Z" fill="#c2c1b9" stroke="#c2c1b9"/><path d="M126,505L199,727L319,643Z" fill="#c2ccc3" stroke="#c2ccc3"/><path d="M126,505L319,643L273,468Z" fill="#d0d3c6" stroke="#d0d3c6"/><path d="M273,468L319,643L357,538Z" fill="#cfdcce" stroke="#cfdcce"/><path d="M357,538L319,643L465,650Z" fill="#c5e0d5" stroke="#c5e0d5"/><path d="M357,538L465,650L555,528Z" fill="#cbecdd" stroke="#cbecdd"/><path d="M555,528L465,650L673,643Z" fill="#bce7e2" stroke="#bce7e2"/><path d="M555,528L673,643L732,481Z" fill="#bbe4e4" stroke="#bbe4e4"/><path d="M732,481L673,643L878,573Z" fill="#acdce7" stroke="#acdce7"/><path d="M878,573L673,643L840,679Z" fill="#9dd6e8" stroke="#9dd6e8"/><path d="M878,573L840,679L950,632Z" fill="#93d0eb" stroke="#93d0eb"/><path d="M878,573L950,632L958,553Z" fill="#96cfec" stroke="#96cfec"/><path d="M958,553L950,632L1166,637Z" fill="#87c8ef" stroke="#87c8ef"/><path d="M958,553L1166,637L1182,565Z" fill="#82c4f1" stroke="#82c4f1"/><path d="M1182,565L1166,637L1257,626Z" fill="#73bcf4" stroke="#73bcf4"/><path d="M1182,565L1257,626L1247,472Z" fill="#78bdf5" stroke="#78bdf5"/><path d="M1247,472L1257,626L1405,648Z" fill="#6bb7f7" stroke="#6bb7f7"/><path d="M1247,472L1405,648L1474,501Z" fill="#6ab4f9" stroke="#6ab4f9"/><path d="M1474,501L1405,648L1602,629Z" fill="#54aafd" stroke="#54aafd"/><path d="M1474,501L1602,629L1610,475Z" fill="#55a8ff" stroke="#55a8ff"/><path d="M1610,475L1602,629L1611,884Z" fill="#3d9eff" stroke="#3d9eff"/><path d="M-22,733L-60,784L101,818Z" fill="#a8abad" stroke="#a8abad"/><path d="M-22,733L101,818L46,639Z" fill="#b0b2b1" stroke="#b0b2b1"/><path d="M46,639L101,818L199,727Z" fill="#b1bab9" stroke="#b1bab9"/><path d="M199,727L101,818L278,791Z" fill="#a9c1c1" stroke="#a9c1c1"/><path d="M199,727L278,791L319,643Z" fill="#b3cdc8" stroke="#b3cdc8"/><path d="M319,643L278,791L375,804Z" fill="#afd2cf" stroke="#afd2cf"/><path d="M319,643L375,804L465,650Z" fill="#b6dcd5" stroke="#b6dcd5"/><path d="M465,650L375,804L574,838Z" fill="#ace3de" stroke="#ace3de"/><path d="M465,650L574,838L655,774Z" fill="#a4dfe2" stroke="#a4dfe2"/><path d="M465,650L655,774L673,643Z" fill="#abe0e3" stroke="#abe0e3"/><path d="M673,643L655,774L840,679Z" fill="#9bd7e6" stroke="#9bd7e6"/><path d="M840,679L655,774L817,883Z" fill="#88d0e8" stroke="#88d0e8"/><path d="M840,679L817,883L920,867Z" fill="#79c8ea" stroke="#79c8ea"/><path d="M840,679L920,867L950,632Z" fill="#82caec" stroke="#82caec"/><path d="M950,632L920,867L1068,843Z" fill="#71c2ee" stroke="#71c2ee"/><path d="M950,632L1068,843L1166,637Z" fill="#74c0f0" stroke="#74c0f0"/><path d="M1166,637L1068,843L1308,875Z" fill="#58b4f4" stroke="#58b4f4"/><path d="M1166,637L1308,875L1257,626Z" fill="#5db4f6" stroke="#5db4f6"/><path d="M1257,626L1308,875L1405,648Z" fill="#54aef8" stroke="#54aef8"/><path d="M1405,648L1308,875L1428,855Z" fill="#41a6fa" stroke="#41a6fa"/><path d="M1405,648L1428,855L1602,629Z" fill="#42a4fc" stroke="#42a4fc"/><path d="M1602,629L1428,855L1611,884Z" fill="#2e9cfe" stroke="#2e9cfe"/><path d="M-60,784L-52,1000L47,916Z" fill="#95a1aa" stroke="#95a1aa"/><path d="M-60,784L47,916L101,818Z" fill="#9faaaf" stroke="#9faaaf"/><path d="M101,818L47,916L215,1002Z" fill="#93b2b9" stroke="#93b2b9"/><path d="M101,818L215,1002L278,791Z" fill="#9abdc1" stroke="#9abdc1"/><path d="M278,791L215,1002L381,918Z" fill="#95c6cb" stroke="#95c6cb"/><path d="M278,791L381,918L375,804Z" fill="#a0d0d1" stroke="#a0d0d1"/><path d="M375,804L381,918L574,838Z" fill="#9edbdb" stroke="#9edbdb"/><path d="M574,838L381,918L476,1026Z" fill="#92dbdf" stroke="#92dbdf"/><path d="M574,838L476,1026L712,970Z" fill="#82d3e2" stroke="#82d3e2"/><path d="M574,838L712,970L655,774Z" fill="#8ad4e4" stroke="#8ad4e4"/><path d="M655,774L712,970L817,883Z" fill="#7ecde6" stroke="#7ecde6"/><path d="M817,883L712,970L826,986Z" fill="#6cc6e8" stroke="#6cc6e8"/><path d="M817,883L826,986L920,867Z" fill="#69c3ea" stroke="#69c3ea"/><path d="M920,867L826,986L1015,964Z" fill="#5dbdec" stroke="#5dbdec"/><path d="M920,867L1015,964L1068,843Z" fill="#5cbbee" stroke="#5cbbee"/><path d="M1068,843L1015,964L1142,979Z" fill="#4eb4f1" stroke="#4eb4f1"/><path d="M1068,843L1142,979L1308,875Z" fill="#47aff3" stroke="#47aff3"/><path d="M1308,875L1142,979L1318,996Z" fill="#35a6f6" stroke="#35a6f6"/><path d="M1308,875L1318,996L1415,954Z" fill="#2ca0f9" stroke="#2ca0f9"/><path d="M1308,875L1415,954L1428,855Z" fill="#30a1fa" stroke="#30a1fa"/><path d="M1428,855L1415,954L1532,924Z" fill="#249bfc" stroke="#249bfc"/><path d="M1428,855L1532,924L1611,884Z" fill="#2198fe" stroke="#2198fe"/><path d="M-52,1000L476,1026L215,1002Z" fill="#83b7c3" stroke="#83b7c3"/><path d="M-52,1000L215,1002L47,916Z" fill="#89a8b4" stroke="#89a8b4"/><path d="M215,1002L476,1026L381,918Z" fill="#88cad2" stroke="#88cad2"/><path d="M476,1026L1318,996L826,986Z" fill="#59bdeb" stroke="#59bdeb"/><path d="M476,1026L826,986L712,970Z" fill="#71cbe5" stroke="#71cbe5"/><path d="M826,986L1318,996L1142,979Z" fill="#42aff1" stroke="#42aff1"/><path d="M826,986L1142,979L1015,964Z" fill="#4fb6ee" stroke="#4fb6ee"/><path d="M1318,996L1532,924L1415,954Z" fill="#219bfb" stroke="#219bfb"/></g></svg>